<?xml version="1.0" encoding="UTF-8" standalone="no"?>
<!-- Created with Inkscape (http://www.inkscape.org/) -->

<svg
   width="210mm"
   height="210mm"
   viewBox="0 0 210 210"
   version="1.1"
   id="svg1"
   xml:space="preserve"
   xmlns="http://www.w3.org/2000/svg"
   xmlns:svg="http://www.w3.org/2000/svg"><defs
     id="defs1" /><g
     id="layer2"
     style="display:inline"><rect
       style="display:inline;fill:#ffffff;fill-opacity:1;stroke-width:0.484232;stroke-dasharray:none;paint-order:fill markers stroke"
       id="rect42"
       width="7.5198812"
       height="29.723528"
       x="100.41424"
       y="55.96637"
       rx="4.4425077"
       ry="4.4425077" /><rect
       style="display:inline;fill:#ffffff;fill-opacity:1;stroke-width:0.498907;stroke-dasharray:none;paint-order:fill markers stroke"
       id="rect42-5"
       width="7.5198812"
       height="31.552368"
       x="127.26418"
       y="-45.755314"
       rx="4.4425077"
       ry="4.7158475"
       transform="rotate(46.792104)" /><path
       id="rect15-7"
       style="display:inline;fill:#ffffff;fill-opacity:1;stroke-width:0.446806;paint-order:fill markers stroke"
       d="m 103.33013,35.873844 c -0.98469,0.0022 -1.96906,0.03849 -2.95073,0.108521 -0.10162,0.0038 -0.20324,0.0077 -0.30489,0.01137 -4.058957,0.356118 -8.084358,1.179481 -11.904179,2.611727 -3.595443,1.306527 -7.011602,3.110125 -10.139433,5.310787 -3.568809,2.5067 -6.75424,5.553296 -9.4356,8.990666 -2.710515,3.501107 -4.901795,7.405455 -6.45697,11.550716 -1.55391,4.149565 -2.491252,8.532368 -2.735233,12.956832 -0.04113,0.714819 -0.05844,1.430936 -0.06511,2.147156 h 6.156728 A 37.761314,37.761314 0 0 1 101.30131,43.071854 c -0.0194,0.132898 -0.0294,0.268254 -0.0294,0.406694 v 3.887101 c 0,1.538213 1.23784,2.776575 2.77606,2.776575 1.53821,0 2.77709,-1.238362 2.77709,-2.776575 v -3.887101 c 0,-0.09011 -0.005,-0.178787 -0.0134,-0.266651 a 37.761314,37.761314 0 0 1 33.81757,33.662028 c -0.14128,-0.02199 -0.28645,-0.03307 -0.43408,-0.03307 h -3.8871 c -1.53822,0 -2.77709,1.238363 -2.77709,2.776575 0,1.538215 1.23887,2.776575 2.77709,2.776575 h 3.8871 c 0.20804,0 0.40986,-0.02367 0.60461,-0.06666 A 37.761314,37.761314 0 0 1 106.8158,118.1603 c 0.006,-0.0729 0.009,-0.14621 0.009,-0.22065 v -3.88711 c 0,-1.5382 -1.23837,-2.77657 -2.77658,-2.77657 -1.53822,0 -2.77606,1.23837 -2.77606,2.77657 v 3.88711 c 0,0.12226 0.008,0.24219 0.0238,0.36018 a 37.761314,37.761314 0 0 1 -22.027087,-8.56744 v 0.5731 c 0,0.554 -0.445942,0.99994 -0.999939,0.99994 h -5.790861 c 0.478888,0.47192 0.94897,0.95269 1.44849,1.40249 3.265786,2.93943 6.974071,5.38617 10.963155,7.22644 4.58781,2.12084 9.539369,3.4468 14.573788,3.89743 4.414594,0.38972 8.885864,0.11643 13.219854,-0.81493 4.32305,-0.94123 8.50076,-2.53015 12.35894,-4.69739 3.79328,-2.14613 7.26589,-4.85417 10.27121,-8.01192 3.00539,-3.16197 5.53911,-6.77067 7.48895,-10.674284 2.13597,-4.286347 3.56958,-8.923125 4.23023,-13.66635 0.8802,-6.395146 0.37606,-12.914546 -1.55546,-19.08824 -3.44197,-11.269043 -11.63877,-20.968114 -22.17178,-26.248527 -6.17014,-3.137384 -13.08215,-4.772045 -19.975,-4.756299 z M 59.336949,80.272168 c 0.0025,0.375005 0.01072,0.749637 0.02274,1.124479 -0.01183,-0.374825 -0.02032,-0.749489 -0.02274,-1.124479 z m 0.02274,1.124479 c 0.0051,0.160073 0.01079,0.320065 0.01757,0.480074 -0.0069,-0.159988 -0.01244,-0.320022 -0.01757,-0.480074 z m 0.01757,0.480074 c 0.01469,0.342011 0.03264,0.683688 0.05529,1.02526 -0.0224,-0.341556 -0.04081,-0.683265 -0.05529,-1.02526 z m 0.05529,1.02526 c 0.0198,0.301922 0.04168,0.603939 0.0677,0.905371 -0.02628,-0.301497 -0.04766,-0.603384 -0.0677,-0.905371 z m 0.0677,0.905371 c 0.01719,0.197221 0.03542,0.394216 0.05529,0.591179 -0.0197,-0.197015 -0.03826,-0.393905 -0.05529,-0.591179 z m 0.05529,0.591179 c 0.03648,0.364815 0.07884,0.729216 0.12454,1.092956 -0.04603,-0.363783 -0.08773,-0.728098 -0.12454,-1.092956 z m 0.12454,1.092956 c 0.02055,0.162366 0.04066,0.324676 0.06305,0.486792 -0.02225,-0.162139 -0.04264,-0.324403 -0.06305,-0.486792 z m 0.06305,0.486792 c 0.06154,0.448528 0.129931,0.896249 0.205672,1.342554 -0.07608,-0.446299 -0.14373,-0.894031 -0.205672,-1.342554 z m 0.205672,1.342554 c 0.01523,0.08936 0.03174,0.178427 0.04754,0.267684 -0.01574,-0.08927 -0.03238,-0.178314 -0.04754,-0.267684 z m 0.04754,0.267684 c 0.08193,0.464686 0.171225,0.92792 0.268718,1.389579 -0.0977,-0.461562 -0.186466,-0.92499 -0.268718,-1.389579 z m 0.268718,1.389579 c 0.01229,0.05809 0.02467,0.116115 0.03721,0.17415 -0.01251,-0.05801 -0.02495,-0.116089 -0.03721,-0.17415 z m 0.03721,0.17415 c 0.112233,0.52048 0.233108,1.039108 0.365352,1.554944 -0.132231,-0.515785 -0.252898,-1.034511 -0.365352,-1.554944 z m 0.365352,1.554944 c 0.09365,0.376324 0.207141,0.746983 0.311609,1.120345 -0.104468,-0.373362 -0.217962,-0.74402 -0.311609,-1.120345 z m 0.311609,1.120345 c 0.693345,2.47797 1.607199,4.893046 2.724381,7.211962 h 6.633704 a 37.761314,37.761314 0 0 1 -3.081466,-7.211962 z m 4.42712,-11.141439 a 37.761314,37.761314 0 0 0 0.299206,4.166154 37.761314,37.761314 0 0 1 -0.299206,-4.166154 z m 0.299206,4.166154 a 37.761314,37.761314 0 0 0 0.184485,1.316198 37.761314,37.761314 0 0 1 -0.184485,-1.316198 z m 0.184485,1.316198 a 37.761314,37.761314 0 0 0 0.536402,2.66082 37.761314,37.761314 0 0 1 -0.536402,-2.66082 z m 0.536402,2.66082 a 37.761314,37.761314 0 0 0 0.827856,2.993616 37.761314,37.761314 0 0 1 -0.827856,-2.993616 z" /></g><g
     id="layer4"><path
       id="path37"
       style="fill:#ffffff;fill-opacity:1;stroke-width:1.19918;paint-order:fill markers stroke"
       d="m 34.925486,72.377183 c -3.076432,0 -5.552795,2.47694 -5.552795,5.55337 v 15.138614 c 0,0.03876 0.005,0.07622 0.0057,0.114786 l -0.01492,-0.0052 v 9.000407 a 3.3416614,3.3416614 0 0 0 -5.74e-4,0.003 3.3416614,3.3416614 0 0 0 5.74e-4,0.003 v 0.0121 h 0.0017 a 3.3416614,3.3416614 0 0 0 3.339711,3.32651 3.3416614,3.3416614 0 0 0 1.46812,-0.38569 l 0.0034,0.0362 0.171606,-0.12511 a 3.3416614,3.3416614 0 0 0 0.580819,-0.42357 l 3.378741,-2.46503 6.129023,-3.53887 h 27.608442 c 3.07643,0 5.55337,-2.476939 5.55337,-5.553369 V 77.930553 c 0,-3.07643 -2.47694,-5.55337 -5.55337,-5.55337 z m 3.69842,7.234991 h 13.48741 c 0.07306,0 0.144794,0.0055 0.215799,0.01492 h 16.230807 c 0.922928,0 1.665551,0.742623 1.665551,1.665551 v 8.925222 c 0,0.922931 -0.742623,1.666126 -1.665551,1.666126 H 41.716253 l -1.863558,1.355055 -1.227642,1.127777 a 1.2142089,1.5288784 0 0 1 -0.211206,0.193415 l -0.06256,0.05739 -0.0011,-0.01664 a 1.2142089,1.5288784 0 0 1 -0.533183,0.176771 1.2142089,1.5288784 0 0 1 -1.213293,-1.522068 h -0.0011 v -0.0057 a 1.2142089,1.5288784 0 0 1 0,-0.0011 1.2142089,1.5288784 0 0 1 0,-0.0017 v -4.117964 l 0.0057,0.0023 c -3.33e-4,-0.01765 -0.0023,-0.03449 -0.0023,-0.05223 v -6.926216 c 0,-0.278137 0.03658,-0.544808 0.101586,-0.794897 v -0.06543 c 0,-0.922928 0.743195,-1.665551 1.666126,-1.665551 h 0.03386 c 0.071,-0.0094 0.143314,-0.01492 0.216372,-0.01492 z" /><path
       id="path39"
       style="fill:#ffffff;fill-opacity:1;stroke-width:1.19918;paint-order:fill markers stroke"
       d="m 43.906302,91.786315 c -3.076432,0 -5.552796,2.47694 -5.552796,5.55337 V 112.4783 c 0,0.0388 0.005,0.0762 0.0058,0.11479 l -0.01493,-0.006 v 9.00041 a 3.3416614,3.3416614 0 0 0 -5.75e-4,0.003 3.3416614,3.3416614 0 0 0 5.75e-4,0.003 v 0.012 h 0.0018 a 3.3416614,3.3416614 0 0 0 3.339711,3.32652 3.3416614,3.3416614 0 0 0 1.46812,-0.38569 l 0.0034,0.0362 0.171607,-0.12512 a 3.3416614,3.3416614 0 0 0 0.580819,-0.42357 l 3.37874,-2.46503 6.129023,-3.53887 h 27.608441 c 3.07643,0 5.55337,-2.47694 5.55337,-5.55337 V 97.339685 c 0,-3.07643 -2.47694,-5.55337 -5.55337,-5.55337 z m 3.69842,7.234992 h 13.487409 c 0.07306,0 0.144795,0.0054 0.215799,0.01493 h 16.230807 c 0.922929,0 1.665552,0.742623 1.665552,1.665553 v 8.92521 c 0,0.92293 -0.742623,1.66613 -1.665552,1.66613 H 50.697069 l -1.863559,1.35506 -1.227641,1.12777 a 1.2142089,1.5288784 0 0 1 -0.211207,0.19342 l -0.06256,0.0574 -0.0011,-0.0167 a 1.2142089,1.5288784 0 0 1 -0.533183,0.17677 1.2142089,1.5288784 0 0 1 -1.213293,-1.52207 h -0.0011 v -0.006 a 1.2142089,1.5288784 0 0 1 0,-10e-4 1.2142089,1.5288784 0 0 1 0,-0.002 v -4.11797 l 0.0058,0.002 c -3.33e-4,-0.0177 -0.0023,-0.0345 -0.0023,-0.0522 v -6.92621 c 0,-0.27814 0.03657,-0.54481 0.101589,-0.79489 v -0.0654 c 0,-0.922933 0.743195,-1.665556 1.666126,-1.665556 h 0.03386 c 0.071,-0.0094 0.143314,-0.01493 0.216372,-0.01493 z" /></g><g
     id="layer5"
     style="display:inline"><rect
       style="fill:#ffffff;fill-opacity:1;stroke-width:0.484232;stroke-dasharray:none;paint-order:fill markers stroke"
       id="rect43"
       width="28.257656"
       height="6.5367708"
       x="27.849016"
       y="55.536026"
       rx="3.3318806"
       ry="4.4425077" /><rect
       style="fill:#ffffff;fill-opacity:1;stroke-width:0.58906;stroke-dasharray:none;paint-order:fill markers stroke"
       id="rect43-6"
       width="41.81646"
       height="6.5367708"
       x="149.75224"
       y="101.88194"
       rx="3.3318806"
       ry="4.4425077" /><rect
       style="fill:#ffffff;fill-opacity:1;stroke-width:0.486455;stroke-dasharray:none;paint-order:fill markers stroke"
       id="rect44"
       width="19.603308"
       height="6.3888178"
       x="154.70224"
       y="87.687263"
       rx="2.7765672"
       ry="2.7765672" /><path
       id="rect45"
       style="fill:#ffffff;fill-opacity:1;stroke-width:0.486443;stroke-dasharray:none;paint-order:fill markers stroke"
       d="m 56.536908,32.982467 c -0.801771,0 -1.485361,0.83911 -1.773451,2.03746 v -0.02583 c 0,0 -0.004,0.03219 -0.0086,0.066 -0.03186,0.137556 -0.05755,0.280371 -0.07863,0.426432 -0.148184,0.672353 -0.526951,1.925902 -1.438849,3.077425 -0.778813,0.763258 -1.965937,1.111342 -2.692316,1.261503 -1.560092,0.155681 -2.741101,0.939111 -2.741101,1.88996 0,0.978749 1.251279,1.779622 2.879419,1.901437 0.731856,0.166963 1.807489,0.517957 2.530468,1.226494 1.327476,1.676304 1.52666,3.569859 1.52666,3.569859 V 48.30187 c 0.272251,1.255257 0.970924,2.145932 1.796407,2.145932 0.926611,0 1.695216,-1.12023 1.877907,-2.621148 0.161559,-0.690317 0.544914,-1.882003 1.417039,-2.983301 0.717608,-0.703274 1.782345,-1.054016 2.513824,-1.222476 1.650139,-0.1102 2.923611,-0.917671 2.923611,-1.905455 0,-1.00987 -1.331143,-1.831313 -3.034954,-1.911769 -0.719983,-0.181908 -1.684175,-0.532374 -2.349105,-1.184023 -1.327477,-1.676303 -1.52666,-3.569859 -1.52666,-3.569859 v 0.198581 C 58.105979,33.930037 57.38851,32.982467 56.536915,32.982467 Z" /><path
       id="rect45-2"
       style="display:inline;fill:#ffffff;fill-opacity:0.997985;stroke-width:0.486443;stroke-dasharray:none;paint-order:fill markers stroke"
       d="m 163.52709,114.62951 5.6e-4,5.8e-4 c -0.80177,0 -1.48536,0.8391 -1.77344,2.03745 v -0.0258 c 0,0 -0.005,0.0317 -0.009,0.0654 -0.0319,0.13755 -0.0575,0.28037 -0.0786,0.42642 -0.14819,0.67237 -0.52696,1.92591 -1.43885,3.07743 -0.0634,0.0622 -0.13022,0.12058 -0.19858,0.17734 -0.21064,-0.0355 -0.42827,-0.0545 -0.65142,-0.0545 h -10.85421 c -1.84585,0 -3.33167,1.27398 -3.33167,2.85647 0,1.58248 1.48582,2.85645 3.33167,2.85645 h 10.85421 c 0.0832,0 0.16461,-0.006 0.24622,-0.0109 0.20742,0.13247 0.4045,0.28232 0.58024,0.45455 1.32748,1.67631 1.52666,3.56986 1.52666,3.56986 v -0.11134 c 0.27226,1.25525 0.97093,2.14593 1.79642,2.14593 0.9266,0 1.69521,-1.12022 1.8779,-2.62115 0.16156,-0.69031 0.54492,-1.882 1.41704,-2.9833 0.71761,-0.70327 1.78234,-1.05401 2.51383,-1.22247 1.65013,-0.11018 2.92361,-0.91768 2.92361,-1.90546 0,-1.00986 -1.33115,-1.83131 -3.03496,-1.91177 -0.71998,-0.18191 -1.68417,-0.53237 -2.3491,-1.18402 -1.32748,-1.6763 -1.52666,-3.56986 -1.52666,-3.56986 v 0.19858 c -0.2526,-1.3183 -0.97007,-2.26588 -1.82166,-2.26588 z" /><path
       id="path22"
       style="display:inline;fill:#ffffff;fill-opacity:1;stroke-width:0.475714;stroke-dasharray:none;paint-order:fill markers stroke"
       d="m 144.55707,28.284643 v 5.17e-4 h -10.75955 c -9.02534,0 -16.29151,7.265623 -16.29151,16.290995 v 1.197343 a 37.668812,37.668812 0 0 1 7.79745,4.358907 c 0.1245,-0.839205 0.82683,-0.852144 0.82683,-0.852144 6.14227,-0.003 12.28466,-0.01087 18.42678,-0.0062 0.068,-5.6e-5 0.13608,5.2e-5 0.20412,0 6.14211,-0.0048 12.28451,0.0025 18.42678,0.0062 0,0 0.85754,0.004 0.85318,1.116211 V 69.1545 c 0,0.460219 -10e-4,0.751349 -0.0465,0.91519 l -0.21239,0.157096 c -0.13663,-0.0212 -0.34233,-0.134054 -0.66507,-0.320394 l -10.66654,-8.102348 c 0,0 -4.73573,-4.28697 -7.68738,-5.034835 -0.0326,-0.0087 -0.068,-0.0093 -0.10387,0.001 -0.036,-0.01043 -0.0717,-0.01024 -0.10439,-0.0016 -2.95167,0.747868 -7.68687,5.035351 -7.68687,5.035351 l -0.74466,0.565857 a 37.668812,37.668812 0 0 1 2.76883,6.306075 l 5.7676,-4.273641 13.48549,9.992672 -0.0444,0.03256 2.512,1.797306 2.58485,1.914095 c 0.0178,-0.0094 0.0345,-0.02092 0.0522,-0.03049 l 2.07223,1.482597 c 0,0 5.51606,2.141175 6.47454,-3.717602 V 64.3026 l -0.004,0.0026 c 0.007,-0.183081 0.0202,-0.364213 0.0202,-0.548804 V 44.576155 c 0,-9.025371 -7.26617,-16.291512 -16.29151,-16.291512 z m -12.84315,7.483264 h 12.84315 0.20412 12.84314 c 6.40237,0.01839 6.38773,6.387724 6.38773,6.387724 l -19.23087,-0.01188 h -0.20412 l -19.23087,0.01188 c 0,0 -0.0146,-6.369324 6.38772,-6.387724 z M 117.52203,75.87347 c 0.1198,0.732345 0.31089,1.339607 0.55345,1.841748 -0.24256,-0.502141 -0.43365,-1.109402 -0.55345,-1.841748 z m 0.55345,1.841748 c 0.12128,0.25107 0.25539,0.476014 0.39998,0.676961 -0.14459,-0.200947 -0.2787,-0.425891 -0.39998,-0.676961 z m 0.39998,0.676961 c 0.14467,0.201065 0.29993,0.377975 0.46302,0.533818 -0.16298,-0.155777 -0.31844,-0.332871 -0.46302,-0.533818 z m 0.46302,0.533818 c 0.16289,0.15566 0.3337,0.290169 0.51004,0.40566 -0.17645,-0.115558 -0.34706,-0.249884 -0.51004,-0.40566 z m 0.51004,0.40566 c 0.17645,0.115557 0.35812,0.212196 0.54312,0.292488 -0.18486,-0.08026 -0.3668,-0.177016 -0.54312,-0.292488 z m 0.54364,0.292488 c 0.18486,0.0802 0.37272,0.144366 0.56121,0.194303 -0.18849,-0.04996 -0.37636,-0.114077 -0.56121,-0.194303 z m 3.12539,0.209806 c -0.26556,0.05443 -0.57765,0.102618 -0.91674,0.125057 0.33923,-0.02245 0.6511,-0.0706 0.91674,-0.125057 z" /></g><g
     id="layer6"
     style="display:inline;fill:#ff0000;fill-opacity:0.5"><text
       xml:space="preserve"
       style="font-style:normal;font-variant:normal;font-weight:bold;font-stretch:normal;font-size:49.3889px;font-family:'Aero Matics Display';-inkscape-font-specification:'Aero Matics Display Bold';display:inline;fill:#ffffff;fill-opacity:1;stroke-width:0.437999;paint-order:fill markers stroke"
       x="2.096231"
       y="172.11629"
       id="text1"><tspan
         id="tspan1"
         style="font-size:49.3889px;fill:#ffffff;fill-opacity:1;stroke-width:0.438"
         x="2.096231"
         y="172.11629">Busy Hour</tspan></text></g></svg>
